<svg width="371" height="19" viewBox="0 0 371 19" fill="none" xmlns="http://www.w3.org/2000/svg">
<path d="M0.000284195 11.0674C0.0375156 15.4855 3.64929 19.0369 8.06741 18.9997C12.4855 18.9625 16.0369 15.3507 15.9997 10.9326C15.9625 6.51447 12.3507 2.96305 7.93259 3.00028C3.51447 3.03752 -0.0369472 6.64929 0.000284195 11.0674ZM355 8.07584C355.038 12.494 358.649 16.0454 363.067 16.0081C367.486 15.9709 371.037 12.3591 371 7.94101C370.963 3.52289 367.351 -0.0285207 362.933 0.00871062C358.515 0.0459419 354.963 3.65772 355 8.07584ZM8.01264 12.4999L363.013 9.50837L362.987 6.50848L7.98736 9.50005L8.01264 12.4999Z" fill="black"/>
</svg>
